<svg width="1253" height="123" viewBox="0 0 1253 123" fill="none" xmlns="http://www.w3.org/2000/svg">
<g clip-path="url(#clip0_1_27)">
<g clip-path="url(#clip1_1_27)">
<path d="M323.032 67.3697H356.173C353.498 58.8248 347.626 54.5233 339.603 54.5233C330.533 54.5233 325.184 59.3479 323.032 67.3697ZM374.371 74.3451C374.371 75.9727 374.371 78.0653 373.848 79.6929H322.509C324.137 88.761 330.009 94.1088 339.079 94.1088C345.475 94.1088 350.824 90.9117 353.498 86.087H372.743C367.917 101.084 354.545 110.152 339.079 110.152C318.73 110.152 303.788 94.6319 303.788 74.3451C303.788 54.0582 318.788 38.5379 339.079 38.5379C359.952 39.0611 374.371 55.1045 374.371 74.3451Z" fill="black"/>
<path d="M486.641 66.3248V109.107H468.443V69.5219C468.443 60.4538 464.722 55.6292 458.268 55.6292C450.245 55.6292 445.419 61.5001 445.419 72.1958V109.107H427.221V69.5219C427.221 60.4538 424.023 55.6292 417.046 55.6292C408.5 55.6292 403.674 61.5001 403.674 72.1958V109.107H384.952V40.632H397.802L400.999 49.1769C405.825 43.3059 413.325 39.0044 421.349 39.0044C429.895 39.0044 437.396 43.3059 441.117 49.7C445.942 43.3059 453.443 39.0044 461.989 39.0044C476.408 39.0044 486.583 50.2232 486.583 66.2667" fill="black"/>
<path d="M552.459 74.8715C552.459 64.1758 544.435 56.1541 533.737 56.1541C523.039 56.1541 515.016 64.1758 515.016 74.8715C515.016 85.5671 523.039 93.5889 533.737 93.5889C544.959 93.5889 552.459 85.5671 552.459 74.8715ZM570.599 40.6337V108.528H556.18L554.552 102.657C548.68 108.005 541.179 110.679 532.633 110.679C512.283 110.679 496.818 95.1583 496.818 74.8715C496.818 54.5846 511.818 39.0643 532.633 39.0643C541.179 39.0643 549.203 42.2613 555.075 47.6092L557.226 41.215H570.599V40.6919V40.6337Z" fill="black"/>
<path d="M648.156 67.3711V108.526H629.958V70.045C629.958 59.8725 626.237 54.5247 618.214 54.5247C608.562 54.5247 602.69 61.5001 602.69 72.1958V108.003H584.492V40.632H597.341L601.062 49.1769C606.411 43.3059 614.434 39.0044 623.504 39.0044C638.505 39.0044 648.098 50.2232 648.098 67.313" fill="black"/>
<path d="M774.381 110.676C757.288 110.676 746.067 101.026 746.067 86.6103H764.265C764.265 92.4813 769.09 95.6784 775.486 95.6784C780.835 95.6784 785.137 93.5276 785.137 88.7029C785.137 83.8783 779.265 82.832 772.288 81.2044C761.59 79.5768 747.694 76.3797 747.694 60.3362C747.694 47.4898 758.392 38.4218 774.963 38.4218C791.533 38.4218 802.231 47.4898 802.231 61.4407H784.556C784.556 56.0928 780.835 53.4189 774.381 53.4189C768.509 53.4189 765.311 56.0928 765.311 59.8131C765.311 64.1146 771.183 65.1609 778.16 66.7885C789.382 68.9392 803.277 71.09 803.277 87.6566C802.754 101.549 791.533 110.676 774.381 110.676Z" fill="black"/>
<path d="M847.64 110.675C827.291 110.675 811.302 95.1551 811.302 74.3451C811.302 53.5351 826.826 38.5379 847.64 38.5379C865.315 38.5379 879.211 49.7567 882.409 66.3233H864.211C861.013 59.9292 855.141 55.6277 847.64 55.6277C837.466 55.6277 829.965 63.6494 829.965 74.3451C829.965 85.0407 837.466 93.0625 847.64 93.0625C855.141 93.0625 861.013 88.761 864.211 81.8437H882.932C879.734 98.9335 865.839 110.734 847.64 110.734" fill="black"/>
<path d="M943.339 67.3697H976.479C973.805 58.8248 967.933 54.5233 959.909 54.5233C951.362 54.5233 945.49 59.3479 943.339 67.3697ZM994.678 79.6929H943.339C944.967 88.761 950.839 94.1088 959.909 94.1088C966.305 94.1088 971.654 90.9117 974.328 86.087H993.573C988.747 101.084 975.375 110.152 959.909 110.152C939.56 110.152 924.617 94.6319 924.617 74.3451C924.617 54.0582 939.618 38.5379 959.909 38.5379C980.2 38.5379 995.201 54.5814 995.201 74.3451C994.678 76.4958 994.678 78.0653 994.678 79.6929Z" fill="black"/>
<path d="M1070.09 67.3711V108.526H1051.89V70.045C1051.89 59.8725 1048.17 54.5247 1040.15 54.5247C1030.49 54.5247 1024.62 61.5001 1024.62 72.1958V108.003H1006.42V40.632H1019.27L1022.99 49.1769C1028.34 43.3059 1036.37 39.0044 1045.44 39.0044C1060.44 39.0044 1070.03 50.2232 1070.03 67.313" fill="black"/>
<path d="M1114.51 110.675C1094.16 110.675 1078.17 95.1551 1078.17 74.3451C1078.17 53.5351 1093.69 38.5379 1114.51 38.5379C1132.18 38.5379 1145.5 49.7567 1149.28 66.3233H1131.08C1127.88 59.9292 1122.01 55.6277 1114.51 55.6277C1104.33 55.6277 1096.83 63.6494 1096.83 74.3451C1096.83 85.0407 1104.33 93.0625 1114.51 93.0625C1122.01 93.0625 1127.88 88.761 1131.08 81.8437H1149.8C1146.08 98.9335 1132.12 110.734 1114.51 110.734" fill="black"/>
<path d="M1176.54 67.3697H1209.68C1207.01 58.8248 1201.14 54.5233 1193.11 54.5233C1184.04 54.5233 1178.69 59.3479 1176.54 67.3697ZM1227.36 79.6929H1176.02C1177.65 88.761 1183.52 94.1088 1192.59 94.1088C1198.99 94.1088 1204.34 90.9117 1207.01 86.087H1226.25C1221.43 101.084 1208.06 110.152 1192.59 110.152C1172.24 110.152 1157.3 94.6319 1157.3 74.3451C1157.3 54.0582 1172.3 38.5379 1192.59 38.5379C1212.88 38.5379 1227.88 54.5814 1227.88 74.3451C1227.88 76.4958 1227.36 78.0653 1227.36 79.6929Z" fill="black"/>
<path d="M275.939 11.2191V44.8755C270.59 41.1553 264.194 39.0045 257.217 39.0045C236.344 39.0045 221.402 54.5248 221.402 74.8117C221.402 95.0985 236.403 110.619 257.217 110.619C265.241 110.619 272.741 107.945 278.613 103.12L280.764 108.991H294.137V11.2191M258.845 93.5872C248.147 93.5872 240.124 85.5655 240.124 74.8698C240.124 64.1742 248.147 56.1524 258.845 56.1524C269.543 56.1524 277.567 64.1742 277.567 74.8698C277.567 85.5655 269.543 93.5872 258.845 93.5872Z" fill="black"/>
<path d="M713.391 44.3523C708.042 40.6321 701.646 38.4813 694.67 38.4813C673.797 38.4813 658.855 54.0017 658.855 74.2885C658.855 94.5754 673.855 110.096 694.67 110.096C702.693 110.096 710.193 107.422 716.065 102.597L718.217 108.468H731.589V11.2191H713.391V44.3523ZM695.774 93.5872C685.076 93.5872 677.053 85.5655 677.053 74.8698C677.053 64.1742 685.076 56.1524 695.774 56.1524C706.472 56.1524 714.496 64.1742 714.496 74.8698C714.496 85.5655 706.472 93.5872 695.774 93.5872Z" fill="black"/>
<path d="M913.397 40.6325H894.675V108.527H913.397V40.6325Z" fill="black"/>
<path d="M894.675 22.4363V40.6305L913.397 22.4363H894.675Z" fill="black"/>
<path d="M107.502 64.1746C107.502 72.1963 101.106 78.5905 93.0828 78.5905C85.0593 78.5905 78.6638 72.1963 78.6638 64.1746C78.6638 56.1529 85.0593 49.7587 93.0828 49.7587C101.106 49.7587 107.502 56.1529 107.502 64.1746Z" fill="black"/>
<path d="M185.588 14.9972C185.588 23.0189 179.192 29.413 171.169 29.413C163.145 29.413 156.75 23.0189 156.75 14.9972C156.227 6.45227 162.622 0 171.169 0C179.192 0 185.588 6.39414 185.588 14.9972Z" fill="black"/>
<path d="M171.111 38.4801C164.715 38.4801 158.785 34.7599 156.692 28.8308V107.944C156.692 115.965 163.087 122.36 171.111 122.36C179.134 122.36 185.53 115.965 185.53 107.944V29.4121C182.855 34.7599 177.506 38.4801 171.111 38.4801Z" fill="black"/>
<path d="M132.098 64.1727C125.703 64.1727 119.772 60.4525 117.679 54.5234V82.3088C117.679 90.3306 124.075 96.7247 132.098 96.7247C140.122 96.7247 146.517 90.3306 146.517 82.3088V54.5234C144.366 60.3944 138.494 64.1727 132.098 64.1727Z" fill="black"/>
<path d="M93.0261 88.2389C86.6305 88.2389 80.7001 84.5187 78.6071 78.5896V99.4577C78.6071 107.479 85.0026 113.874 93.0261 113.874C101.05 113.874 107.445 107.479 107.445 99.4577V78.5896C104.771 84.4606 99.4216 88.2389 93.0261 88.2389Z" fill="black"/>
<path d="M146.517 41.1548C146.517 49.1765 140.122 55.5707 132.098 55.5707C124.075 55.5707 117.679 49.1765 117.679 41.1548C117.679 33.1331 124.075 26.7389 132.098 26.7389C140.122 26.2158 146.517 32.6099 146.517 41.1548Z" fill="black"/>
<path d="M1236.95 49.7019C1236.95 50.7482 1236.43 51.8527 1235.32 52.899C1234.28 53.4221 1233.17 53.9453 1231.6 53.9453C1230.03 53.9453 1228.41 53.9453 1227.88 53.4221V50.7482C1228.41 51.2714 1229.51 51.2714 1230.03 51.2714C1230.56 51.2714 1231.66 51.7945 1232.19 51.7945C1233.23 51.7945 1233.81 51.7945 1234.34 51.2714C1234.86 50.7482 1234.86 50.2251 1234.86 49.6438C1234.86 49.0625 1234.86 48.5975 1234.34 48.0162C1233.81 47.4349 1233.29 46.9699 1231.66 46.9699C1230.62 46.4467 1229.51 45.9235 1228.99 45.3423C1228.46 44.761 1227.94 43.7147 1227.94 42.6683C1227.94 41.622 1228.46 40.5176 1228.99 39.9944C1230.03 39.4713 1231.14 38.9481 1232.19 38.9481C1233.81 38.9481 1234.86 39.4713 1236.49 39.9944L1235.96 42.1452C1234.92 41.622 1233.29 41.0989 1232.77 41.0989C1232.24 41.0989 1231.14 41.0989 1231.14 41.622C1230.62 41.622 1230.09 42.1452 1230.09 42.6683V43.7147C1230.09 44.2378 1230.62 44.2378 1230.62 44.2378C1231.14 44.2378 1231.66 44.761 1232.77 45.2841C1233.81 45.8073 1234.39 46.3304 1234.92 46.3304C1235.44 46.8536 1235.96 47.3768 1235.96 47.3768C1237.01 47.8999 1237.01 48.4231 1237.01 49.5275" fill="black"/>
<path d="M1244.98 53.4801L1240.67 41.1569V53.4801H1238.52V39.0643H1241.72L1245.44 50.2831L1249.74 39.0643H1252.94V53.4801H1251.31V41.1569L1247.01 53.4801H1244.86" fill="black"/>
</g>
<path d="M53.4899 26.216C45.4664 26.216 39.0709 32.6101 39.0709 40.6319C39.0709 43.3058 36.9196 45.4565 34.2451 45.4565C31.5706 45.4565 29.4194 43.3058 29.4194 40.6319V14.4159C29.4194 6.39414 23.0239 0 14.419 0C5.81412 0 0 6.39414 0 14.4159V108.003C0 116.548 6.39553 123 14.419 123C22.4425 123 28.838 116.606 28.838 108.584V82.3681C28.838 79.6942 30.9892 77.5435 33.6637 77.5435C36.3382 77.5435 38.4894 79.6942 38.4894 82.3681C38.4894 90.3899 44.885 96.784 52.9085 96.784C60.9319 96.784 67.3275 90.3899 67.3275 82.3681V41.2131C68.374 32.6682 61.9785 26.216 53.4317 26.216" fill="black"/>
</g>
<defs>
<clipPath id="clip0_1_27">
<rect width="1253" height="123" fill="white"/>
</clipPath>
<clipPath id="clip1_1_27">
<rect width="1253" height="122.671" fill="white"/>
</clipPath>
</defs>
</svg>
