<svg width="186" height="123" viewBox="0 0 186 123" fill="none" xmlns="http://www.w3.org/2000/svg">
<path d="M107.502 64.1746C107.502 72.1964 101.106 78.5905 93.0828 78.5905C85.0593 78.5905 78.6638 72.1964 78.6638 64.1746C78.6638 56.1529 85.0593 49.7588 93.0828 49.7588C101.106 49.7588 107.502 56.1529 107.502 64.1746Z" fill="white"/>
<path d="M185.588 14.9972C185.588 23.0189 179.192 29.413 171.169 29.413C163.145 29.413 156.75 23.0189 156.75 14.9972C156.227 6.45227 162.622 0 171.169 0C179.192 0 185.588 6.39414 185.588 14.9972Z" fill="white"/>
<path d="M171.111 38.4801C164.715 38.4801 158.785 34.7599 156.692 28.8308V107.944C156.692 115.965 163.087 122.36 171.111 122.36C179.134 122.36 185.53 115.965 185.53 107.944V29.4121C182.855 34.7599 177.506 38.4801 171.111 38.4801Z" fill="white"/>
<path d="M132.098 64.1727C125.703 64.1727 119.772 60.4525 117.679 54.5233V82.3088C117.679 90.3305 124.075 96.7247 132.098 96.7247C140.122 96.7247 146.517 90.3305 146.517 82.3088V54.5233C144.366 60.3943 138.494 64.1727 132.098 64.1727Z" fill="white"/>
<path d="M93.0261 88.2389C86.6305 88.2389 80.7001 84.5187 78.6071 78.5896V99.4577C78.6071 107.479 85.0026 113.874 93.0261 113.874C101.05 113.874 107.445 107.479 107.445 99.4577V78.5896C104.771 84.4606 99.4216 88.2389 93.0261 88.2389Z" fill="white"/>
<path d="M146.517 41.1548C146.517 49.1765 140.122 55.5707 132.098 55.5707C124.075 55.5707 117.679 49.1765 117.679 41.1548C117.679 33.1331 124.075 26.7389 132.098 26.7389C140.122 26.2158 146.517 32.6099 146.517 41.1548Z" fill="white"/>
<path d="M53.4899 26.216C45.4664 26.216 39.0709 32.6101 39.0709 40.6319C39.0709 43.3058 36.9196 45.4565 34.2451 45.4565C31.5706 45.4565 29.4194 43.3058 29.4194 40.6319V14.4159C29.4194 6.39414 23.0239 0 14.419 0C5.81412 0 0 6.39414 0 14.4159V108.003C0 116.548 6.39553 123 14.419 123C22.4425 123 28.838 116.606 28.838 108.584V82.3681C28.838 79.6942 30.9892 77.5435 33.6637 77.5435C36.3382 77.5435 38.4894 79.6942 38.4894 82.3681C38.4894 90.3899 44.885 96.784 52.9085 96.784C60.9319 96.784 67.3275 90.3899 67.3275 82.3681V41.2131C68.374 32.6682 61.9785 26.216 53.4317 26.216" fill="white"/>
</svg>
